<svg width="40" height="40" viewBox="0 0 40 40" fill="none" xmlns="http://www.w3.org/2000/svg">
<path d="M0 20C0 8.95431 8.95431 0 20 0C31.0457 0 40 8.95431 40 20C40 31.0457 31.0457 40 20 40C8.95431 40 0 31.0457 0 20Z" fill="#EDF7F3"/>
<ellipse cx="17.5013" cy="15.0001" rx="3.33333" ry="3.33333" fill="#3D8C6C"/>
<ellipse cx="17.5013" cy="24.1676" rx="5.83333" ry="3.33333" fill="#3D8C6C"/>
<path d="M27.5016 24.1669C27.5016 25.5476 25.8053 26.6669 23.7342 26.6669C24.3444 26 24.7639 25.1628 24.7639 24.1681C24.7639 23.1722 24.3434 22.3343 23.7321 21.667C25.8031 21.667 27.5016 22.7862 27.5016 24.1669Z" fill="#3D8C6C"/>
<path d="M25.0016 15.0005C25.0016 16.3812 23.8823 17.5005 22.5016 17.5005C22.2005 17.5005 21.9118 17.4473 21.6445 17.3497C22.0388 16.6563 22.2639 15.8542 22.2639 14.9996C22.2639 14.1455 22.0391 13.344 21.6454 12.6509C21.9125 12.5536 22.2008 12.5005 22.5016 12.5005C23.8823 12.5005 25.0016 13.6198 25.0016 15.0005Z" fill="#3D8C6C"/>
</svg>
