<svg width="40" height="40" viewBox="0 0 40 40" fill="none" xmlns="http://www.w3.org/2000/svg">
<path d="M0 20C0 8.95431 8.95431 0 20 0C31.0457 0 40 8.95431 40 20C40 31.0457 31.0457 40 20 40C8.95431 40 0 31.0457 0 20Z" fill="#FEE7EF"/>
<path d="M20.6263 11.6667C20.6263 11.3216 20.3465 11.0417 20.0013 11.0417C19.6561 11.0417 19.3763 11.3216 19.3763 11.6667V14.1667C19.3763 14.5119 19.6561 14.7917 20.0013 14.7917C20.3465 14.7917 20.6263 14.5119 20.6263 14.1667V11.6667Z" fill="#F31260"/>
<path fill-rule="evenodd" clip-rule="evenodd" d="M11.668 27.7084H13.3346V23.3334C13.3346 19.6515 16.3194 16.6667 20.0013 16.6667C23.6832 16.6667 26.668 19.6515 26.668 23.3334V27.7084H28.3346C28.6798 27.7084 28.9596 27.9882 28.9596 28.3334C28.9596 28.6786 28.6798 28.9584 28.3346 28.9584H11.668C11.3228 28.9584 11.043 28.6786 11.043 28.3334C11.043 27.9882 11.3228 27.7084 11.668 27.7084ZM20.6263 25.6662C20.9999 25.4501 21.2513 25.0461 21.2513 24.5834C21.2513 23.8931 20.6917 23.3334 20.0013 23.3334C19.3109 23.3334 18.7513 23.8931 18.7513 24.5834C18.7513 25.0461 19.0027 25.4501 19.3763 25.6662V27.7084H20.6263V25.6662ZM21.3307 19.3489C21.4603 19.0289 21.8246 18.8746 22.1446 19.0041C23.1371 19.4058 23.9287 20.1975 24.3304 21.1899C24.46 21.5099 24.3056 21.8743 23.9856 22.0038C23.6657 22.1333 23.3013 21.9789 23.1718 21.659C22.897 20.9803 22.3543 20.4375 21.6756 20.1628C21.3556 20.0332 21.2012 19.6689 21.3307 19.3489Z" fill="#F31260"/>
<path d="M27.9432 14.5581C28.1873 14.8022 28.1873 15.1979 27.9432 15.442L26.6932 16.692C26.4492 16.9361 26.0534 16.9361 25.8094 16.692C25.5653 16.4479 25.5653 16.0522 25.8094 15.8081L27.0594 14.5581C27.3034 14.3141 27.6992 14.3141 27.9432 14.5581Z" fill="#F31260"/>
<path d="M12.9432 14.5581C12.6992 14.3141 12.3034 14.3141 12.0594 14.5581C11.8153 14.8022 11.8153 15.1979 12.0594 15.442L13.3094 16.692C13.5534 16.9361 13.9492 16.9361 14.1932 16.692C14.4373 16.4479 14.4373 16.0522 14.1932 15.8081L12.9432 14.5581Z" fill="#F31260"/>
</svg>
