<svg width="40" height="40" viewBox="0 0 40 40" fill="none" xmlns="http://www.w3.org/2000/svg">
<path d="M0 20C0 8.95431 8.95431 0 20 0C31.0457 0 40 8.95431 40 20C40 31.0457 31.0457 40 20 40C8.95431 40 0 31.0457 0 20Z" fill="#FEFCE8"/>
<path d="M15.1864 13.8343C15.5568 13.5867 15.9458 13.372 16.3489 13.1915C17.4921 12.6796 18.0637 12.4236 18.8242 12.9163C19.5846 13.4089 19.5846 14.2171 19.5846 15.8334V17.0834C19.5846 18.6548 19.5846 19.4404 20.0728 19.9286C20.5609 20.4168 21.3466 20.4168 22.918 20.4168H24.168C25.7843 20.4168 26.5925 20.4168 27.0851 21.1772C27.5778 21.9377 27.3218 22.5093 26.8098 23.6525C26.6293 24.0556 26.4146 24.4445 26.1671 24.815C25.2972 26.1169 24.0608 27.1316 22.6142 27.7308C21.1676 28.33 19.5759 28.4868 18.0402 28.1813C16.5045 27.8758 15.0939 27.1218 13.9867 26.0147C12.8795 24.9075 12.1256 23.4969 11.8201 21.9612C11.5146 20.4255 11.6714 18.8338 12.2706 17.3872C12.8698 15.9406 13.8845 14.7042 15.1864 13.8343Z" fill="#F5A524"/>
<path d="M27.873 15.8908C27.1965 14.1735 25.8277 12.8047 24.1105 12.1282C22.8259 11.6222 21.668 12.7859 21.668 14.1666V17.4999C21.668 17.9602 22.0411 18.3333 22.5013 18.3333H25.8346C27.2153 18.3333 28.3791 17.1754 27.873 15.8908Z" fill="#F5A524"/>
</svg>
