<svg width="40" height="40" viewBox="0 0 40 40" fill="none" xmlns="http://www.w3.org/2000/svg">
<path d="M0 20C0 8.95431 8.95431 0 20 0C31.0457 0 40 8.95431 40 20C40 31.0457 31.0457 40 20 40C8.95431 40 0 31.0457 0 20Z" fill="#EDF4FC"/>
<path fill-rule="evenodd" clip-rule="evenodd" d="M20.0013 28.3334C24.6037 28.3334 28.3346 24.6025 28.3346 20.0001C28.3346 15.3977 24.6037 11.6667 20.0013 11.6667C15.3989 11.6667 11.668 15.3977 11.668 20.0001C11.668 24.6025 15.3989 28.3334 20.0013 28.3334ZM21.6315 21.7458C21.4705 21.8871 21.2652 21.9692 20.8547 22.1334C18.9298 22.9033 17.9674 23.2883 17.4177 22.9147C17.2874 22.8262 17.175 22.7138 17.0864 22.5834C16.7129 22.0337 17.0978 21.0713 17.8677 19.1465C18.032 18.7359 18.1141 18.5307 18.2553 18.3696C18.2913 18.3286 18.3299 18.2899 18.371 18.2539C18.532 18.1127 18.7373 18.0306 19.1478 17.8664C21.0727 17.0965 22.0351 16.7115 22.5848 17.085C22.7151 17.1736 22.8275 17.286 22.9161 17.4164C23.2897 17.9661 22.9047 18.9285 22.1348 20.8533C21.9705 21.2639 21.8884 21.4691 21.7472 21.6302C21.7112 21.6712 21.6726 21.7099 21.6315 21.7458Z" fill="#3B73B5"/>
</svg>
