<svg width="40" height="40" viewBox="0 0 40 40" fill="none" xmlns="http://www.w3.org/2000/svg">
<path d="M0 20C0 8.95431 8.95431 0 20 0C31.0457 0 40 8.95431 40 20C40 31.0457 31.0457 40 20 40C8.95431 40 0 31.0457 0 20Z" fill="#E8FAF0"/>
<path fill-rule="evenodd" clip-rule="evenodd" d="M28.3346 20.0003C28.3346 24.6027 24.6037 28.3337 20.0013 28.3337C15.3989 28.3337 11.668 24.6027 11.668 20.0003C11.668 15.398 15.3989 11.667 20.0013 11.667C24.6037 11.667 28.3346 15.398 28.3346 20.0003ZM23.3599 17.4751C23.604 17.7191 23.604 18.1149 23.3599 18.3589L19.1932 22.5256C18.9492 22.7697 18.5534 22.7697 18.3094 22.5256L16.6427 20.8589C16.3986 20.6149 16.3986 20.2191 16.6427 19.975C16.8868 19.731 17.2825 19.731 17.5266 19.975L18.7513 21.1998L20.6137 19.3374L22.476 17.4751C22.7201 17.231 23.1158 17.231 23.3599 17.4751Z" fill="#17C964"/>
</svg>
