<svg width="40" height="40" viewBox="0 0 40 40" fill="none" xmlns="http://www.w3.org/2000/svg">
<path d="M0 20C0 8.95431 8.95431 0 20 0C31.0457 0 40 8.95431 40 20C40 31.0457 31.0457 40 20 40C8.95431 40 0 31.0457 0 20Z" fill="#EDF4FC"/>
<path fill-rule="evenodd" clip-rule="evenodd" d="M27.6605 12.3384C27.9263 12.6034 27.9388 13.0167 27.8988 13.3659C27.858 13.725 27.7446 14.14 27.5971 14.5467C27.3055 15.3467 26.8388 16.2267 26.3905 16.675L26.3821 16.6834L24.8746 18.1084L26.608 22.6867C26.7049 22.9176 26.7326 23.1716 26.6878 23.418C26.643 23.6643 26.5275 23.8923 26.3555 24.0742L25.1913 25.3075C25.1485 25.3519 25.0966 25.3863 25.0391 25.4083C24.9816 25.4304 24.9199 25.4396 24.8585 25.4352C24.7971 25.4308 24.7373 25.413 24.6835 25.383C24.6297 25.3531 24.5832 25.3116 24.5471 25.2617L21.6555 21.1517L20.718 22.0375C20.2855 22.4709 19.8713 22.8575 19.473 23.1475C19.2468 23.3179 18.9998 23.4588 18.738 23.5667L19.5155 25.5342C19.6996 26.0009 19.5671 26.5284 19.228 26.8867L18.3763 27.7867C18.3342 27.8278 18.2842 27.8599 18.2292 27.881C18.1743 27.902 18.1156 27.9116 18.0568 27.9091C17.998 27.9066 17.9403 27.8921 17.8874 27.8665C17.8344 27.8408 17.7872 27.8046 17.7488 27.76L15.2988 24.7L12.2388 22.25C12.1942 22.2116 12.1581 22.1643 12.1325 22.1113C12.1069 22.0583 12.0925 22.0005 12.0902 21.9417C12.0878 21.8829 12.0976 21.8242 12.1189 21.7693C12.1401 21.7144 12.1724 21.6644 12.2138 21.6225L13.113 20.7709C13.4713 20.4317 13.9988 20.2984 14.4646 20.4825L16.433 21.26C16.533 21.0075 16.6805 20.7625 16.8521 20.5259C17.1413 20.1275 17.5296 19.7125 17.9621 19.28L18.848 18.3434L14.738 15.4517C14.688 15.4157 14.6465 15.3692 14.6164 15.3154C14.5864 15.2617 14.5685 15.202 14.564 15.1405C14.5596 15.0791 14.5687 15.0174 14.5907 14.9599C14.6127 14.9024 14.647 14.8503 14.6913 14.8075L15.9246 13.6425C16.2971 13.2917 16.8413 13.1925 17.313 13.3909L21.8913 15.1242L23.3246 13.6075C23.773 13.1592 24.653 12.6925 25.453 12.4017C25.8596 12.2542 26.2746 12.1409 26.633 12.1C26.983 12.06 27.3946 12.0725 27.6605 12.3384ZM23.9171 14.1934L22.3055 15.8984C22.249 15.958 22.1762 15.9997 22.0961 16.0181C22.016 16.0365 21.9323 16.0308 21.8555 16.0017L17.0096 14.1667L16.993 14.16C16.9106 14.1246 16.8197 14.114 16.7314 14.1297C16.6431 14.1454 16.5614 14.1867 16.4963 14.2484L15.6338 15.0625L19.7205 17.9375C19.7675 17.9734 19.8067 18.0185 19.8356 18.0701C19.8645 18.1218 19.8824 18.1788 19.8883 18.2377C19.8941 18.2966 19.8878 18.356 19.8697 18.4123C19.8516 18.4686 19.8221 18.5206 19.783 18.565L18.5546 19.865C18.1255 20.2934 17.7755 20.6709 17.5255 21.015C17.273 21.3617 17.153 21.6367 17.1321 21.86C17.1251 21.924 17.1036 21.9855 17.0691 22.0398C17.0347 22.0941 16.9882 22.1398 16.9333 22.1734C16.8784 22.2069 16.8166 22.2275 16.7525 22.2334C16.6885 22.2393 16.6239 22.2305 16.5638 22.2075L14.158 21.2575C13.768 21.1034 13.3713 21.6717 13.133 21.8975L15.8563 24.0767C15.8807 24.0961 15.9024 24.1178 15.9213 24.1417L18.1005 26.865C18.3255 26.6259 18.8946 26.2292 18.7405 25.84L17.7905 23.4342C17.7675 23.3741 17.7587 23.3095 17.7646 23.2455C17.7705 23.1814 17.7911 23.1196 17.8246 23.0647C17.8582 23.0098 17.9039 22.9633 17.9582 22.9289C18.0125 22.8944 18.074 22.8729 18.138 22.8659C18.3613 22.845 18.6355 22.7242 18.9838 22.4717C19.3271 22.2217 19.7046 21.8717 20.1338 21.4434L20.1421 21.435L21.433 20.2142C21.4774 20.1752 21.5293 20.1457 21.5856 20.1277C21.6419 20.1096 21.7013 20.1034 21.7601 20.1093C21.8189 20.1153 21.8759 20.1333 21.9274 20.1622C21.9789 20.1912 22.0239 20.2304 22.0596 20.2775L24.9346 24.3642L25.7496 23.5017C25.8136 23.4345 25.8557 23.3494 25.8703 23.2577C25.8849 23.1661 25.8713 23.0721 25.8313 22.9884L23.9971 18.1434C23.9681 18.0665 23.9624 17.9828 23.9808 17.9027C23.9992 17.8227 24.0408 17.7498 24.1005 17.6934L25.8055 16.0809C26.1255 15.7584 26.5388 15.015 26.8138 14.2609C26.9538 13.8759 27.1413 13.3909 27.0738 12.9692C27.0688 12.9367 27.0605 12.9292 27.028 12.9242C26.6071 12.8567 26.1221 13.0442 25.7371 13.1842C24.9821 13.4592 24.2396 13.8725 23.9163 14.1925" fill="#3B73B5"/>
</svg>
