<svg width="40" height="40" viewBox="0 0 40 40" fill="none" xmlns="http://www.w3.org/2000/svg">
<path d="M0 20C0 8.95431 8.95431 0 20 0C31.0457 0 40 8.95431 40 20C40 31.0457 31.0457 40 20 40C8.95431 40 0 31.0457 0 20Z" fill="#FEFCE8"/>
<path fill-rule="evenodd" clip-rule="evenodd" d="M27.918 17.0837C27.918 15.9133 27.918 15.3281 27.6371 14.9077C27.5155 14.7257 27.3592 14.5695 27.1773 14.4479C26.8096 14.2022 26.3158 14.1714 25.4146 14.1675C25.418 14.4104 25.418 14.6641 25.418 14.9258L25.418 15.0003V16.042H26.2513C26.5965 16.042 26.8763 16.3218 26.8763 16.667C26.8763 17.0122 26.5965 17.292 26.2513 17.292H25.418V18.542H26.2513C26.5965 18.542 26.8763 18.8218 26.8763 19.167C26.8763 19.5122 26.5965 19.792 26.2513 19.792H25.418V21.042H26.2513C26.5965 21.042 26.8763 21.3218 26.8763 21.667C26.8763 22.0122 26.5965 22.292 26.2513 22.292H25.418V27.7087H24.168V15.0003C24.168 13.429 24.168 12.6433 23.6798 12.1551C23.1917 11.667 22.406 11.667 20.8346 11.667H19.168C17.5966 11.667 16.8109 11.667 16.3228 12.1551C15.8346 12.6433 15.8346 13.429 15.8346 15.0003V27.7087H14.5846V22.292H13.7513C13.4061 22.292 13.1263 22.0122 13.1263 21.667C13.1263 21.3218 13.4061 21.042 13.7513 21.042H14.5846V19.792H13.7513C13.4061 19.792 13.1263 19.5122 13.1263 19.167C13.1263 18.8218 13.4061 18.542 13.7513 18.542H14.5846V17.292H13.7513C13.4061 17.292 13.1263 17.0122 13.1263 16.667C13.1263 16.3218 13.4061 16.042 13.7513 16.042H14.5846V15.0003L14.5846 14.9257C14.5846 14.6641 14.5846 14.4104 14.588 14.1675C13.6868 14.1714 13.193 14.2022 12.8254 14.4479C12.6434 14.5695 12.4871 14.7257 12.3655 14.9077C12.0846 15.3281 12.0846 15.9133 12.0846 17.0837V27.7087H11.668C11.3228 27.7087 11.043 27.9885 11.043 28.3337C11.043 28.6788 11.3228 28.9587 11.668 28.9587H28.3346C28.6798 28.9587 28.9596 28.6788 28.9596 28.3337C28.9596 27.9885 28.6798 27.7087 28.3346 27.7087H27.918V17.0837ZM20.0013 13.542C20.3465 13.542 20.6263 13.8218 20.6263 14.167V15.2087H21.668C22.0131 15.2087 22.293 15.4885 22.293 15.8337C22.293 16.1788 22.0131 16.4587 21.668 16.4587H20.6263V17.5003C20.6263 17.8455 20.3465 18.1253 20.0013 18.1253C19.6561 18.1253 19.3763 17.8455 19.3763 17.5003V16.4587H18.3346C17.9895 16.4587 17.7096 16.1788 17.7096 15.8337C17.7096 15.4885 17.9895 15.2087 18.3346 15.2087H19.3763V14.167C19.3763 13.8218 19.6561 13.542 20.0013 13.542ZM17.7096 20.0003C17.7096 19.6551 17.9895 19.3753 18.3346 19.3753H21.668C22.0131 19.3753 22.293 19.6551 22.293 20.0003C22.293 20.3455 22.0131 20.6253 21.668 20.6253H18.3346C17.9895 20.6253 17.7096 20.3455 17.7096 20.0003ZM17.7096 22.5003C17.7096 22.1551 17.9895 21.8753 18.3346 21.8753H21.668C22.0131 21.8753 22.293 22.1551 22.293 22.5003C22.293 22.8455 22.0131 23.1253 21.668 23.1253H18.3346C17.9895 23.1253 17.7096 22.8455 17.7096 22.5003ZM20.0013 25.2087C20.3465 25.2087 20.6263 25.4885 20.6263 25.8337V27.7087H19.3763V25.8337C19.3763 25.4885 19.6561 25.2087 20.0013 25.2087Z" fill="#F5A524"/>
</svg>
