<svg width="40" height="40" viewBox="0 0 40 40" fill="none" xmlns="http://www.w3.org/2000/svg">
<path d="M0 20C0 8.95431 8.95431 0 20 0C31.0457 0 40 8.95431 40 20C40 31.0457 31.0457 40 20 40C8.95431 40 0 31.0457 0 20Z" fill="#E4F3ED"/>
<path d="M27.2604 12.083C26.6021 12.083 25.9406 12.083 25.613 12.4137L22.9765 15.3809H12.7521L12.0938 16.37L19.3479 18.6788L17.3698 21.3153H14.4026L13.4135 22.3044L15.3917 22.9627V23.9518C15.4133 24.3072 15.7224 24.6101 16.05 24.6101H17.0391L17.6974 26.5882L18.6865 25.5992V22.632L21.3229 20.6539L23.6318 27.908L24.6208 27.2497V17.0283L27.588 14.3919C27.9187 14.0611 27.9187 13.4028 27.9187 12.7414C27.9187 12.4137 27.588 12.083 27.2604 12.083Z" fill="url(#paint0_linear_10754_131572)"/>
<defs>
<linearGradient id="paint0_linear_10754_131572" x1="12.0938" y1="19.9955" x2="27.9187" y2="19.9955" gradientUnits="userSpaceOnUse">
<stop stop-color="#4CAF87"/>
<stop offset="1" stop-color="#4A90E2"/>
</linearGradient>
</defs>
</svg>
