<svg width="40" height="40" viewBox="0 0 40 40" fill="none" xmlns="http://www.w3.org/2000/svg">
<path d="M0 20C0 8.95431 8.95431 0 20 0C31.0457 0 40 8.95431 40 20C40 31.0457 31.0457 40 20 40C8.95431 40 0 31.0457 0 20Z" fill="#FEE7EF"/>
<path fill-rule="evenodd" clip-rule="evenodd" d="M24.49 12.439C23.4067 12.2933 21.9832 12.292 20.0013 12.292C18.0194 12.292 16.5959 12.2933 15.5126 12.439C14.4473 12.5822 13.805 12.8546 13.3303 13.3293C12.8556 13.804 12.5832 14.4463 12.4399 15.5116C12.2943 16.595 12.293 18.0185 12.293 20.0003C12.293 21.9822 12.2943 23.4057 12.4399 24.489C12.5832 25.5543 12.8556 26.1966 13.3303 26.6713C13.72 27.061 14.2226 27.3144 14.9794 27.4719L27.4728 14.9785C27.3154 14.2216 27.062 13.719 26.6723 13.3293C26.1976 12.8546 25.5553 12.5822 24.49 12.439ZM27.6574 16.5617L22.5522 21.6668L27.0583 26.1729C27.3038 25.7569 27.4639 25.2235 27.5627 24.489C27.7083 23.4057 27.7096 21.9822 27.7096 20.0003C27.7096 18.6015 27.709 17.4809 27.6574 16.5617ZM26.1745 27.0569L21.6683 22.5507L16.5627 27.6564C17.4819 27.708 18.6025 27.7087 20.0013 27.7087C21.9832 27.7087 23.4067 27.7073 24.49 27.5617C25.2248 27.4629 25.7584 27.3026 26.1745 27.0569ZM24.6565 11.2001C25.8605 11.362 26.8105 11.6998 27.5562 12.4454C28.3019 13.1911 28.6396 14.1411 28.8015 15.3451C28.9597 16.5213 28.9596 18.0289 28.9596 19.9525V20.0481C28.9596 21.9718 28.9597 23.4793 28.8015 24.6556C28.6396 25.8595 28.3019 26.8095 27.5562 27.5552C26.8105 28.3009 25.8605 28.6387 24.6565 28.8005C23.4803 28.9587 21.9728 28.9587 20.0491 28.9587H19.9535C18.0298 28.9587 16.5223 28.9587 15.3461 28.8005C14.1421 28.6387 13.1921 28.3009 12.4464 27.5552C11.7007 26.8095 11.363 25.8595 11.2011 24.6556C11.0429 23.4793 11.043 21.9718 11.043 20.0481V19.9525C11.043 18.0288 11.0429 16.5213 11.2011 15.3451C11.363 14.1411 11.7007 13.1911 12.4464 12.4454C13.1921 11.6998 14.1421 11.362 15.3461 11.2001C16.5223 11.042 18.0298 11.042 19.9535 11.042H20.0491C21.9728 11.042 23.4803 11.042 24.6565 11.2001ZM13.9596 17.298C13.9596 15.4122 15.5884 13.9586 17.5013 13.9586C19.4143 13.9586 21.043 15.4122 21.043 17.298C21.043 18.9866 20.0048 20.9795 18.2803 21.7164C17.7848 21.9282 17.2178 21.9282 16.7223 21.7164C14.9978 20.9795 13.9596 18.9866 13.9596 17.298ZM17.5013 15.2086C16.1926 15.2086 15.2096 16.1856 15.2096 17.298C15.2096 18.5842 16.0333 20.0626 17.2135 20.567C17.3953 20.6447 17.6074 20.6447 17.7891 20.567C18.9693 20.0626 19.793 18.5842 19.793 17.298C19.793 16.1856 18.81 15.2086 17.5013 15.2086Z" fill="#F31260"/>
<path d="M18.3346 17.5003C18.3346 17.9606 17.9615 18.3337 17.5013 18.3337C17.0411 18.3337 16.668 17.9606 16.668 17.5003C16.668 17.0401 17.0411 16.667 17.5013 16.667C17.9615 16.667 18.3346 17.0401 18.3346 17.5003Z" fill="#F31260"/>
</svg>
