<svg width="40" height="40" viewBox="0 0 40 40" fill="none" xmlns="http://www.w3.org/2000/svg">
<path d="M0 20C0 8.95431 8.95431 0 20 0C31.0457 0 40 8.95431 40 20C40 31.0457 31.0457 40 20 40C8.95431 40 0 31.0457 0 20Z" fill="#E4F3ED"/>
<path d="M28.2422 15.9767C28.3346 17.028 28.3346 18.3384 28.3346 20.0003C28.3346 23.445 28.3346 25.3794 27.5118 26.6264L22.5522 21.6668L28.2422 15.9767Z" fill="url(#paint0_linear_10754_64839)"/>
<path d="M26.628 27.5104L21.6683 22.5507L15.9777 28.2412C17.0289 28.3337 18.3393 28.3337 20.0013 28.3337C23.4466 28.3337 25.3811 28.3337 26.628 27.5104Z" fill="url(#paint1_linear_10754_64839)"/>
<path fill-rule="evenodd" clip-rule="evenodd" d="M20.0013 11.667C23.9297 11.667 25.8939 11.667 27.1142 12.8874C27.5341 13.3073 27.8096 13.8152 27.9902 14.4609L14.4619 27.9892C13.8162 27.8086 13.3082 27.5332 12.8884 27.1133C11.668 25.8929 11.668 23.9287 11.668 20.0003C11.668 16.072 11.668 14.1078 12.8884 12.8874C14.1087 11.667 16.0729 11.667 20.0013 11.667ZM14.5846 17.2981C14.5846 18.7855 15.5155 20.5211 16.9679 21.1418C17.3065 21.2865 17.6961 21.2865 18.0347 21.1418C19.4871 20.5211 20.418 18.7855 20.418 17.2981C20.418 15.799 19.1121 14.5837 17.5013 14.5837C15.8905 14.5837 14.5846 15.799 14.5846 17.2981Z" fill="url(#paint2_linear_10754_64839)"/>
<path d="M18.7513 17.5003C18.7513 18.1907 18.1917 18.7503 17.5013 18.7503C16.8109 18.7503 16.2513 18.1907 16.2513 17.5003C16.2513 16.81 16.8109 16.2503 17.5013 16.2503C18.1917 16.2503 18.7513 16.81 18.7513 17.5003Z" fill="url(#paint3_linear_10754_64839)"/>
<defs>
<linearGradient id="paint0_linear_10754_64839" x1="11.668" y1="20.0003" x2="28.3346" y2="20.0003" gradientUnits="userSpaceOnUse">
<stop stop-color="#4CAF87"/>
<stop offset="1" stop-color="#4A90E2"/>
</linearGradient>
<linearGradient id="paint1_linear_10754_64839" x1="11.668" y1="20.0003" x2="28.3346" y2="20.0003" gradientUnits="userSpaceOnUse">
<stop stop-color="#4CAF87"/>
<stop offset="1" stop-color="#4A90E2"/>
</linearGradient>
<linearGradient id="paint2_linear_10754_64839" x1="11.668" y1="20.0003" x2="28.3346" y2="20.0003" gradientUnits="userSpaceOnUse">
<stop stop-color="#4CAF87"/>
<stop offset="1" stop-color="#4A90E2"/>
</linearGradient>
<linearGradient id="paint3_linear_10754_64839" x1="11.668" y1="20.0003" x2="28.3346" y2="20.0003" gradientUnits="userSpaceOnUse">
<stop stop-color="#4CAF87"/>
<stop offset="1" stop-color="#4A90E2"/>
</linearGradient>
</defs>
</svg>
