<svg width="40" height="40" viewBox="0 0 40 40" fill="none" xmlns="http://www.w3.org/2000/svg">
<path d="M0 20C0 8.95431 8.95431 0 20 0C31.0457 0 40 8.95431 40 20C40 31.0457 31.0457 40 20 40C8.95431 40 0 31.0457 0 20Z" fill="#EDF4FC"/>
<path fill-rule="evenodd" clip-rule="evenodd" d="M11.6914 19.3753C12.011 15.0649 15.6095 11.667 20.0017 11.667C19.3093 11.667 18.6928 11.9705 18.1857 12.4346C17.6811 12.8964 17.2546 13.541 16.9097 14.303C16.5628 15.0694 16.2933 15.9659 16.1109 16.9388C15.9647 17.7186 15.8757 18.5408 15.8461 19.3753H11.6914ZM11.6914 20.6253H15.8461C15.8757 21.4599 15.9647 22.282 16.1109 23.0619C16.2933 24.0348 16.5628 24.9312 16.9097 25.6977C17.2546 26.4597 17.6811 27.1043 18.1857 27.5661C18.6928 28.0302 19.3093 28.3337 20.0017 28.3337C15.6095 28.3337 12.011 24.9358 11.6914 20.6253Z" fill="#3B73B5"/>
<path d="M20.0017 12.8298C19.7725 12.8298 19.4764 12.9273 19.1322 13.2423C18.7854 13.5597 18.4382 14.0571 18.1314 14.7348C17.8267 15.408 17.5793 16.2207 17.409 17.1288C17.2749 17.844 17.1917 18.6021 17.1626 19.3753H22.8408C22.8116 18.6021 22.7284 17.844 22.5943 17.1288C22.424 16.2207 22.1766 15.408 21.8719 14.7348C21.5652 14.0571 21.218 13.5597 20.8712 13.2423C20.5269 12.9273 20.2308 12.8298 20.0017 12.8298Z" fill="#3B73B5"/>
<path d="M17.409 22.8718C17.5793 23.78 17.8267 24.5927 18.1314 25.2659C18.4382 25.9435 18.7854 26.4409 19.1322 26.7583C19.4764 27.0734 19.7725 27.1709 20.0017 27.1709C20.2308 27.1709 20.5269 27.0734 20.8712 26.7583C21.218 26.4409 21.5651 25.9435 21.8719 25.2659C22.1766 24.5927 22.424 23.78 22.5943 22.8718C22.7284 22.1566 22.8116 21.3985 22.8408 20.6253H17.1626C17.1917 21.3985 17.2749 22.1566 17.409 22.8718Z" fill="#3B73B5"/>
<path d="M20.0017 11.667C20.694 11.667 21.3105 11.9705 21.8177 12.4346C22.3223 12.8964 22.7487 13.541 23.0936 14.303C23.4405 15.0694 23.71 15.9659 23.8924 16.9388C24.0386 17.7186 24.1276 18.5408 24.1572 19.3753H28.3119C27.9923 15.0649 24.3938 11.667 20.0017 11.667Z" fill="#3B73B5"/>
<path d="M23.8924 23.0619C23.71 24.0348 23.4405 24.9312 23.0936 25.6977C22.7487 26.4597 22.3223 27.1043 21.8177 27.5661C21.3105 28.0302 20.694 28.3337 20.0017 28.3337C24.3938 28.3337 27.9923 24.9358 28.3119 20.6253H24.1572C24.1276 21.4599 24.0386 22.282 23.8924 23.0619Z" fill="#3B73B5"/>
</svg>
