<svg width="40" height="40" viewBox="0 0 40 40" fill="none" xmlns="http://www.w3.org/2000/svg">
<path d="M0 20C0 8.95431 8.95431 0 20 0C31.0457 0 40 8.95431 40 20C40 31.0457 31.0457 40 20 40C8.95431 40 0 31.0457 0 20Z" fill="#FEFCE8"/>
<path d="M16.0431 17.5002C16.0431 17.155 16.323 16.8752 16.6681 16.8752H19.1681C19.5133 16.8752 19.7931 17.155 19.7931 17.5002C19.7931 17.8453 19.5133 18.1252 19.1681 18.1252H16.6681C16.323 18.1252 16.0431 17.8453 16.0431 17.5002Z" fill="#F5A524"/>
<path fill-rule="evenodd" clip-rule="evenodd" d="M11.0752 12.3025C11.1844 11.9751 11.5383 11.7981 11.8658 11.9072L12.1194 11.9918C12.6414 12.1658 13.0825 12.3128 13.4294 12.4741C13.7981 12.6457 14.118 12.8582 14.3606 13.1948C14.6031 13.5314 14.7037 13.9021 14.7498 14.3061C14.7524 14.3288 14.7548 14.3518 14.7571 14.3752L23.7605 14.3752C24.5738 14.3751 25.2541 14.3751 25.7745 14.4521C26.3174 14.5325 26.8409 14.7172 27.1711 15.218C27.5013 15.7188 27.4649 16.2728 27.3249 16.8034C27.1907 17.312 26.9227 17.9374 26.6023 18.6849L26.2133 19.5926C26.0661 19.936 25.9367 20.2381 25.8021 20.4773C25.6565 20.7362 25.4786 20.9713 25.2094 21.1488C24.9402 21.3264 24.654 21.3972 24.3587 21.4291C24.0858 21.4585 23.7572 21.4585 23.3835 21.4585H15.1294C15.191 21.5701 15.2617 21.6621 15.3423 21.7427C15.5729 21.9733 15.8968 22.1237 16.5082 22.2059C17.1377 22.2905 17.972 22.2918 19.1681 22.2918H25.8348C26.18 22.2918 26.4598 22.5717 26.4598 22.9168C26.4598 23.262 26.18 23.5418 25.8348 23.5418H19.1224C17.9828 23.5419 17.0641 23.5419 16.3417 23.4447C15.5916 23.3439 14.96 23.1281 14.4584 22.6265C13.9568 22.1249 13.7411 21.4934 13.6402 20.7433C13.5431 20.0208 13.5431 19.1022 13.5431 17.9626L13.5431 15.736C13.5431 15.1419 13.5422 14.7487 13.5078 14.4479C13.4753 14.163 13.4185 14.0256 13.3465 13.9257C13.2745 13.8258 13.1621 13.7284 12.9021 13.6075C12.6276 13.4798 12.2549 13.3546 11.6913 13.1667L11.4705 13.0931C11.143 12.9839 10.9661 12.63 11.0752 12.3025ZM14.8404 20.2085H23.353C23.7662 20.2085 24.0267 20.2077 24.2245 20.1863C24.4072 20.1666 24.4774 20.1342 24.5213 20.1053C24.5651 20.0764 24.6226 20.0245 24.7127 19.8644C24.8102 19.691 24.9136 19.4519 25.0764 19.0721L25.4335 18.2388C25.779 17.4328 26.0085 16.8929 26.1162 16.4845C26.2209 16.0877 26.1679 15.9672 26.1276 15.9061C26.0873 15.845 25.9975 15.7488 25.5914 15.6887C25.1736 15.6268 24.587 15.6252 23.7101 15.6252H14.7931C14.7931 15.6504 14.7931 15.6758 14.7931 15.7013L14.7931 17.9168C14.7931 18.8935 14.794 19.6289 14.8404 20.2085Z" fill="#F5A524"/>
<path fill-rule="evenodd" clip-rule="evenodd" d="M16.2515 28.1252C15.2159 28.1252 14.3765 27.2857 14.3765 26.2502C14.3765 25.2146 15.2159 24.3752 16.2515 24.3752C17.287 24.3752 18.1265 25.2146 18.1265 26.2502C18.1265 27.2857 17.287 28.1252 16.2515 28.1252ZM15.6265 26.2502C15.6265 26.5953 15.9063 26.8752 16.2515 26.8752C16.5967 26.8752 16.8765 26.5953 16.8765 26.2502C16.8765 25.905 16.5967 25.6252 16.2515 25.6252C15.9063 25.6252 15.6265 25.905 15.6265 26.2502Z" fill="#F5A524"/>
<path fill-rule="evenodd" clip-rule="evenodd" d="M21.8765 26.2502C21.8765 27.2858 22.7159 28.1252 23.7515 28.1252C24.787 28.1252 25.6265 27.2858 25.6265 26.2502C25.6265 25.2147 24.787 24.3752 23.7515 24.3752C22.7159 24.3752 21.8765 25.2147 21.8765 26.2502ZM23.7515 26.8752C23.4063 26.8752 23.1265 26.5954 23.1265 26.2502C23.1265 25.9051 23.4063 25.6252 23.7515 25.6252C24.0967 25.6252 24.3765 25.9051 24.3765 26.2502C24.3765 26.5954 24.0967 26.8752 23.7515 26.8752Z" fill="#F5A524"/>
</svg>
