<svg width="40" height="40" viewBox="0 0 40 40" fill="none" xmlns="http://www.w3.org/2000/svg">
<path d="M0 20C0 8.95431 8.95431 0 20 0C31.0457 0 40 8.95431 40 20C40 31.0457 31.0457 40 20 40C8.95431 40 0 31.0457 0 20Z" fill="#E4F3ED"/>
<path d="M11.8658 11.9072C11.5383 11.7981 11.1844 11.9751 11.0752 12.3025C10.9661 12.63 11.143 12.9839 11.4705 13.0931L11.6913 13.1667C12.2549 13.3546 12.6276 13.4798 12.9021 13.6075C13.1621 13.7284 13.2745 13.8258 13.3465 13.9257C13.4185 14.0256 13.4753 14.163 13.5078 14.4479C13.5422 14.7487 13.5431 15.1419 13.5431 15.736L13.5431 17.9626C13.5431 19.1022 13.5431 20.0208 13.6402 20.7433C13.7411 21.4934 13.9568 22.1249 14.4584 22.6265C14.96 23.1281 15.5916 23.3439 16.3417 23.4447C17.0641 23.5419 17.9827 23.5419 19.1224 23.5418H25.0015C25.3466 23.5418 25.6265 23.262 25.6265 22.9168C25.6265 22.5717 25.3466 22.2918 25.0015 22.2918H19.1681C17.972 22.2918 17.1377 22.2905 16.5082 22.2059C15.8968 22.1237 15.5729 21.9733 15.3423 21.7427C15.1463 21.5467 15.0083 21.2834 14.9208 20.8335H23.3532C24.1527 20.8335 24.5524 20.8335 24.8655 20.6271C25.1786 20.4206 25.3361 20.0532 25.651 19.3183L26.0082 18.485C26.6827 16.9109 27.02 16.1239 26.6495 15.5621C26.279 15.0002 25.4228 15.0002 23.7103 15.0002H14.789C14.7841 14.7438 14.7733 14.5124 14.7498 14.3061C14.7037 13.9021 14.6031 13.5314 14.3606 13.1948C14.118 12.8582 13.7981 12.6457 13.4294 12.4741C13.0825 12.3128 12.6414 12.1658 12.1194 11.9918L11.8658 11.9072Z" fill="url(#paint0_linear_10754_179125)"/>
<path d="M16.2513 25.0002C16.9417 25.0002 17.5013 25.5598 17.5013 26.2502C17.5013 26.9406 16.9417 27.5002 16.2513 27.5002C15.5609 27.5002 15.0013 26.9406 15.0013 26.2502C15.0013 25.5598 15.5609 25.0002 16.2513 25.0002Z" fill="url(#paint1_linear_10754_179125)"/>
<path d="M23.7513 25.0003C24.4417 25.0003 25.0013 25.5599 25.0013 26.2503C25.0013 26.9406 24.4417 27.5003 23.7513 27.5003C23.0609 27.5003 22.5013 26.9406 22.5013 26.2503C22.5013 25.5599 23.0609 25.0003 23.7513 25.0003Z" fill="url(#paint2_linear_10754_179125)"/>
<defs>
<linearGradient id="paint0_linear_10754_179125" x1="11.043" y1="19.6876" x2="26.8024" y2="19.6876" gradientUnits="userSpaceOnUse">
<stop stop-color="#4CAF87"/>
<stop offset="1" stop-color="#4A90E2"/>
</linearGradient>
<linearGradient id="paint1_linear_10754_179125" x1="11.043" y1="19.6876" x2="26.8024" y2="19.6876" gradientUnits="userSpaceOnUse">
<stop stop-color="#4CAF87"/>
<stop offset="1" stop-color="#4A90E2"/>
</linearGradient>
<linearGradient id="paint2_linear_10754_179125" x1="11.043" y1="19.6876" x2="26.8024" y2="19.6876" gradientUnits="userSpaceOnUse">
<stop stop-color="#4CAF87"/>
<stop offset="1" stop-color="#4A90E2"/>
</linearGradient>
</defs>
</svg>
