<svg width="142" height="30" viewBox="0 0 142 30" fill="none" xmlns="http://www.w3.org/2000/svg">
<path d="M16.1228 23.0326C15.4868 23.0326 14.9712 22.517 14.9712 21.881V15.669C14.9712 15.5879 14.9798 15.507 14.9968 15.4277L16.6808 7.56889C16.6927 7.51344 16.7086 7.45893 16.7285 7.40583L18.1597 3.58956C18.2886 3.24578 18.0344 2.87908 17.6673 2.87908C17.1653 2.87908 16.9488 2.24292 17.3464 1.93663L19.3974 0.356923V6.13798C19.3974 7.19029 20.6924 7.69137 21.4007 6.91312L27.3498 0.376486C27.568 0.136687 27.8772 0 28.2015 0H30.5019C31.5063 0 32.0294 1.19592 31.3476 1.93341L25.3057 8.46865C24.9533 8.84989 24.8995 9.41983 25.1745 9.86026L32.2977 21.2711C32.7765 22.0382 32.225 23.0326 31.3208 23.0326H28.63C28.2306 23.0326 27.8598 22.8257 27.65 22.4859L22.3245 13.8588C21.9244 13.2106 21.0166 13.1225 20.4993 13.6816L19.7037 14.5414C19.5068 14.7543 19.3974 15.0336 19.3974 15.3235V21.881C19.3974 22.517 18.8818 23.0326 18.2458 23.0326H16.1228Z" fill="url(#paint0_linear_10684_47029)"/>
<path d="M10.3646 17.5725C9.3723 15.3173 8.54856 13.4453 7.72508 11.5737C6.94412 9.79881 6.16229 8.02335 5.23738 5.92128L10.0891 8.56755L10.3646 8.71825L10.6401 8.56755L15.4907 5.92128L10.3646 17.5725Z" fill="url(#paint1_linear_10684_47029)"/>
<path fill-rule="evenodd" clip-rule="evenodd" d="M18.0032 0.220482C19.6013 -0.632752 21.3073 1.15427 20.5392 2.87688L12.0606 21.89C11.3807 23.4145 9.34851 23.4144 8.66865 21.89L0.190001 2.87688C-0.57813 1.15442 1.12691 -0.632143 2.72494 0.220482L9.5245 3.85082C10.0533 4.13305 10.676 4.13311 11.2047 3.85082L18.0032 0.220482ZM10.3646 7.40692L2.82278 3.293L10.3646 20.4325L17.9064 3.293L10.3646 7.40692Z" fill="url(#paint2_linear_10684_47029)"/>
<path d="M38.7685 23.3644C37.6077 23.3644 36.6495 23.1801 35.8941 22.8116C35.1386 22.4247 34.5766 21.9179 34.2081 21.2914C33.858 20.6465 33.6829 19.9371 33.6829 19.1632C33.6829 18.3156 33.8948 17.5694 34.3186 16.9245C34.7609 16.2796 35.415 15.7728 36.281 15.4043C37.1655 15.0358 38.271 14.8515 39.5977 14.8515H41.3333C42.2828 14.8515 43.1414 14.0421 42.7762 13.1655C42.5919 12.7049 42.3063 12.364 41.9194 12.1429C41.5324 11.9218 41.0165 11.8112 40.3716 11.8112C39.6714 11.8112 39.0726 11.9679 38.5751 12.2811C38.5393 12.3031 38.5046 12.326 38.4709 12.3499C37.73 12.8741 37.029 13.6631 36.1214 13.6631C35.0203 13.6631 34.1161 12.6756 34.639 11.7066C34.7549 11.4918 34.8876 11.2871 35.0372 11.0926C35.6085 10.3556 36.3547 9.78436 37.276 9.37899C38.2157 8.97361 39.2568 8.77093 40.3992 8.77093C41.7075 8.77093 42.8407 8.99204 43.7988 9.43427C44.757 9.87649 45.494 10.5122 46.01 11.3414C46.5259 12.1705 46.7839 13.1932 46.7839 14.4093V21.3053C46.7839 22.2593 46.0105 23.0327 45.0564 23.0327H44.1315C43.842 23.0327 43.5931 22.8276 43.5377 22.5434L43.4537 22.1124C43.374 21.7032 42.785 21.5953 42.4998 21.8995C42.2234 22.1943 41.901 22.4523 41.5324 22.6734C41.1639 22.8945 40.7493 23.0604 40.2887 23.1709C39.828 23.2999 39.3213 23.3644 38.7685 23.3644ZM39.653 20.4899C40.1321 20.4899 40.5559 20.407 40.9244 20.2412C41.3113 20.0569 41.643 19.8174 41.9194 19.5225C42.1958 19.2093 42.4077 18.8592 42.5551 18.4723C42.7209 18.0669 42.8315 17.6339 42.8868 17.1732C42.8868 17.158 42.8744 17.1456 42.8591 17.1456H40.0399C39.4687 17.1456 38.9989 17.2193 38.6303 17.3667C38.2802 17.4957 38.0223 17.6891 37.8564 17.9471C37.6906 18.2051 37.6077 18.4999 37.6077 18.8316C37.6077 19.2001 37.6906 19.5041 37.8564 19.7437C38.0223 19.9832 38.2618 20.1675 38.5751 20.2964C38.8883 20.4254 39.2476 20.4899 39.653 20.4899Z" fill="url(#paint3_linear_10684_47029)"/>
<path d="M52.9595 23.0327C51.9291 23.0327 51.0938 22.1974 51.0938 21.1671V10.8763C51.0938 9.89671 51.888 9.1026 52.8675 9.1026H53.8311C54.1633 9.1026 54.4454 9.35169 54.4914 9.68074C54.5794 10.3104 55.5296 10.5375 56.0136 10.1252C56.5295 9.70144 57.11 9.36977 57.7549 9.13024C57.8323 9.10228 57.9106 9.07595 57.9898 9.05126C59.0317 8.7263 59.9384 9.6557 59.9384 10.7471V11.4519C59.9384 12.1541 59.3691 12.7233 58.667 12.7233C58.1142 12.7233 57.5983 12.7878 57.1192 12.9168C56.6585 13.0458 56.2531 13.2577 55.9031 13.5525C55.553 13.8289 55.2858 14.2158 55.1015 14.7133C54.9173 15.2108 54.8251 15.8373 54.8251 16.5928V21.1671C54.8251 22.1974 53.9899 23.0327 52.9595 23.0327Z" fill="url(#paint4_linear_10684_47029)"/>
<path d="M69.7051 23.3644C68.3047 23.3644 67.061 23.0696 65.9738 22.4799C64.9051 21.8719 64.0667 21.0335 63.4587 19.9648C62.869 18.8776 62.5742 17.6247 62.5742 16.2059C62.5742 14.7502 62.869 13.4696 63.4587 12.364C64.0667 11.24 64.9051 10.3648 65.9738 9.7383C67.0426 9.09338 68.2863 8.77093 69.7051 8.77093C71.0871 8.77093 72.294 9.07496 73.3259 9.68302C74.3577 10.2911 75.1592 11.111 75.7305 12.1429C76.3017 13.1748 76.5873 14.3448 76.5873 15.6531C76.5873 15.8373 76.5873 16.0492 76.5873 16.2888C76.5873 16.688 76.2373 16.9797 75.8381 16.9797H66.3608C65.7349 16.9797 65.2276 16.4724 65.2276 15.8465C65.2276 15.2207 65.7349 14.7133 66.3608 14.7133H70.425C71.7279 14.7133 72.8415 13.4431 71.861 12.5851C71.2898 12.0692 70.5712 11.8112 69.7051 11.8112C69.0786 11.8112 68.4982 11.9586 67.9639 12.2535C67.4295 12.5298 67.0057 12.9629 66.6925 13.5525C66.3976 14.1421 66.2502 14.8884 66.2502 15.7913V16.5928C66.2502 17.3483 66.3884 18.0116 66.6648 18.5828C66.9596 19.1356 67.365 19.5686 67.8809 19.8819C68.3969 20.1767 68.9957 20.3241 69.6775 20.3241C70.3593 20.3241 70.9212 20.1767 71.3635 19.8819C71.4576 19.8216 71.5467 19.7579 71.6308 19.6908C72.2126 19.2263 72.8597 18.7486 73.6041 18.7486C74.8991 18.7486 75.8056 20.0239 74.9721 21.0151C74.9488 21.0428 74.9252 21.0705 74.9013 21.098C74.2932 21.7982 73.547 22.3509 72.6625 22.7563C71.7781 23.1617 70.7923 23.3644 69.7051 23.3644Z" fill="url(#paint5_linear_10684_47029)"/>
<path d="M82.3379 29.1133C81.3076 29.1133 80.4723 28.278 80.4723 27.2477V10.9366C80.4723 9.92372 81.2934 9.1026 82.3063 9.1026H83.2642C83.5703 9.1026 83.8348 9.31643 83.8989 9.61574C84.0166 10.1647 84.7655 10.3403 85.1959 9.97977C85.2151 9.96368 85.2344 9.94769 85.2539 9.93177C85.6592 9.58167 86.1383 9.30528 86.6911 9.1026C87.2623 8.88148 87.9256 8.77093 88.6811 8.77093C89.9894 8.77093 91.141 9.09338 92.136 9.7383C93.131 10.3832 93.9141 11.2584 94.4853 12.364C95.075 13.4512 95.3698 14.6949 95.3698 16.0953C95.3698 17.4957 95.075 18.7486 94.4853 19.8542C93.8957 20.9414 93.1034 21.7982 92.1084 22.4247C91.1133 23.0511 89.9801 23.3644 88.7087 23.3644C87.6769 23.3644 86.7832 23.1801 86.0278 22.8116C85.3522 22.4569 84.2036 22.9055 84.2036 23.6685V27.2477C84.2036 28.278 83.3683 29.1133 82.3379 29.1133ZM87.8243 20.103C88.5613 20.103 89.2063 19.9371 89.759 19.6055C90.3302 19.2738 90.7725 18.8039 91.0857 18.1959C91.399 17.5878 91.5556 16.8876 91.5556 16.0953C91.5556 15.303 91.399 14.6028 91.0857 13.9947C90.7725 13.3682 90.3302 12.8892 89.759 12.5575C89.2063 12.2074 88.5613 12.0323 87.8243 12.0323C87.1057 12.0323 86.4608 12.2074 85.8896 12.5575C85.3368 12.8892 84.8945 13.359 84.5629 13.9671C84.2496 14.5751 84.093 15.2753 84.093 16.0677C84.093 16.86 84.2496 17.5694 84.5629 18.1959C84.8945 18.8039 85.3368 19.2738 85.8896 19.6055C86.4608 19.9371 87.1057 20.103 87.8243 20.103Z" fill="url(#paint6_linear_10684_47029)"/>
<path d="M101.361 23.0327C100.331 23.0327 99.4956 22.1974 99.4956 21.1671V10.9682C99.4956 9.93787 100.331 9.1026 101.361 9.1026C102.392 9.1026 103.227 9.93787 103.227 10.9682V21.1671C103.227 22.1974 102.392 23.0327 101.361 23.0327ZM101.375 7.1955C100.712 7.1955 100.159 7.00202 99.7167 6.61508C99.2929 6.2097 99.081 5.70298 99.081 5.09492C99.081 4.48686 99.2929 3.98936 99.7167 3.60241C100.159 3.19704 100.712 2.99435 101.375 2.99435C102.057 2.99435 102.61 3.19704 103.033 3.60241C103.476 3.98936 103.697 4.48686 103.697 5.09492C103.697 5.70298 103.476 6.2097 103.033 6.61508C102.61 7.00202 102.057 7.1955 101.375 7.1955Z" fill="url(#paint7_linear_10684_47029)"/>
<path d="M109.692 23.0327C108.662 23.0327 107.826 22.1974 107.826 21.1671V4.99818C107.826 3.96782 108.662 3.13255 109.692 3.13255C110.722 3.13255 111.558 3.96782 111.558 4.99819V21.1671C111.558 22.1974 110.722 23.0327 109.692 23.0327Z" fill="url(#paint8_linear_10684_47029)"/>
<path d="M122.602 23.3644C121.276 23.3644 120.078 23.0604 119.009 22.4523C117.959 21.8258 117.121 20.969 116.494 19.8819C115.886 18.7763 115.582 17.5141 115.582 16.0953C115.582 14.6396 115.886 13.3682 116.494 12.2811C117.121 11.1755 117.968 10.3187 119.037 9.71066C120.106 9.08417 121.303 8.77093 122.63 8.77093C123.975 8.77093 125.173 9.08417 126.223 9.71066C127.292 10.3187 128.13 11.1755 128.738 12.2811C129.365 13.3682 129.678 14.6304 129.678 16.0677C129.678 17.5049 129.365 18.7763 128.738 19.8819C128.13 20.969 127.292 21.8258 126.223 22.4523C125.154 23.0604 123.947 23.3644 122.602 23.3644ZM122.602 20.1306C123.229 20.1306 123.782 19.9832 124.261 19.6884C124.758 19.3936 125.145 18.9421 125.421 18.3341C125.716 17.726 125.864 16.9705 125.864 16.0677C125.864 15.1648 125.716 14.4185 125.421 13.8289C125.145 13.2208 124.758 12.7694 124.261 12.4746C123.782 12.1613 123.238 12.0047 122.63 12.0047C122.04 12.0047 121.497 12.1613 120.999 12.4746C120.502 12.7694 120.106 13.2208 119.811 13.8289C119.534 14.4185 119.396 15.1648 119.396 16.0677C119.396 16.9705 119.534 17.726 119.811 18.3341C120.106 18.9421 120.493 19.3936 120.972 19.6884C121.469 19.9832 122.013 20.1306 122.602 20.1306Z" fill="url(#paint9_linear_10684_47029)"/>
<path d="M139.457 23.0327C138.481 23.0327 137.624 22.8853 136.887 22.5905C136.168 22.2772 135.606 21.7705 135.201 21.0703C134.795 20.3517 134.593 19.3751 134.593 18.1406V13.4143C134.593 12.7579 134.061 12.2258 133.404 12.2258C132.748 12.2258 132.216 11.6937 132.216 11.0373V10.3559C132.216 9.66374 132.777 9.1026 133.469 9.1026C134.109 9.1026 134.645 8.62127 134.715 7.98566L134.837 6.87456C134.934 5.98766 135.683 5.31604 136.575 5.31604C137.541 5.31604 138.324 6.09903 138.324 7.0649V7.2646C138.324 8.2797 139.147 9.1026 140.162 9.1026H140.438C141.301 9.1026 142 9.80175 142 10.6642C142 11.5267 141.301 12.2258 140.438 12.2258H140.162C139.147 12.2258 138.324 13.0487 138.324 14.0638V18.1959C138.324 18.8224 138.462 19.2554 138.739 19.4949C139.015 19.7344 139.485 19.8542 140.148 19.8542H140.383C141.261 19.8542 141.972 20.5657 141.972 21.4435C141.972 22.3212 141.261 23.0327 140.383 23.0327H139.457Z" fill="url(#paint10_linear_10684_47029)"/>
<defs>
<linearGradient id="paint0_linear_10684_47029" x1="0" y1="14.5567" x2="142" y2="14.5567" gradientUnits="userSpaceOnUse">
<stop stop-color="#4CAF87"/>
<stop offset="1" stop-color="#4A90E2"/>
</linearGradient>
<linearGradient id="paint1_linear_10684_47029" x1="0" y1="14.5567" x2="142" y2="14.5567" gradientUnits="userSpaceOnUse">
<stop stop-color="#4CAF87"/>
<stop offset="1" stop-color="#4A90E2"/>
</linearGradient>
<linearGradient id="paint2_linear_10684_47029" x1="0" y1="14.5567" x2="142" y2="14.5567" gradientUnits="userSpaceOnUse">
<stop stop-color="#4CAF87"/>
<stop offset="1" stop-color="#4A90E2"/>
</linearGradient>
<linearGradient id="paint3_linear_10684_47029" x1="0" y1="14.5567" x2="142" y2="14.5567" gradientUnits="userSpaceOnUse">
<stop stop-color="#4CAF87"/>
<stop offset="1" stop-color="#4A90E2"/>
</linearGradient>
<linearGradient id="paint4_linear_10684_47029" x1="0" y1="14.5567" x2="142" y2="14.5567" gradientUnits="userSpaceOnUse">
<stop stop-color="#4CAF87"/>
<stop offset="1" stop-color="#4A90E2"/>
</linearGradient>
<linearGradient id="paint5_linear_10684_47029" x1="0" y1="14.5567" x2="142" y2="14.5567" gradientUnits="userSpaceOnUse">
<stop stop-color="#4CAF87"/>
<stop offset="1" stop-color="#4A90E2"/>
</linearGradient>
<linearGradient id="paint6_linear_10684_47029" x1="0" y1="14.5567" x2="142" y2="14.5567" gradientUnits="userSpaceOnUse">
<stop stop-color="#4CAF87"/>
<stop offset="1" stop-color="#4A90E2"/>
</linearGradient>
<linearGradient id="paint7_linear_10684_47029" x1="0" y1="14.5567" x2="142" y2="14.5567" gradientUnits="userSpaceOnUse">
<stop stop-color="#4CAF87"/>
<stop offset="1" stop-color="#4A90E2"/>
</linearGradient>
<linearGradient id="paint8_linear_10684_47029" x1="0" y1="14.5567" x2="142" y2="14.5567" gradientUnits="userSpaceOnUse">
<stop stop-color="#4CAF87"/>
<stop offset="1" stop-color="#4A90E2"/>
</linearGradient>
<linearGradient id="paint9_linear_10684_47029" x1="0" y1="14.5567" x2="142" y2="14.5567" gradientUnits="userSpaceOnUse">
<stop stop-color="#4CAF87"/>
<stop offset="1" stop-color="#4A90E2"/>
</linearGradient>
<linearGradient id="paint10_linear_10684_47029" x1="0" y1="14.5567" x2="142" y2="14.5567" gradientUnits="userSpaceOnUse">
<stop stop-color="#4CAF87"/>
<stop offset="1" stop-color="#4A90E2"/>
</linearGradient>
</defs>
</svg>
