<svg width="40" height="40" viewBox="0 0 40 40" fill="none" xmlns="http://www.w3.org/2000/svg">
<path d="M0 20C0 8.95431 8.95431 0 20 0C31.0457 0 40 8.95431 40 20C40 31.0457 31.0457 40 20 40C8.95431 40 0 31.0457 0 20Z" fill="#E4F3ED"/>
<path fillrule="evenodd" cliprule="evenodd" d="M27.4261 14.9075C27.707 15.3278 27.707 15.913 27.707 17.0834V27.7084H28.1237C28.4689 27.7084 28.7487 27.9882 28.7487 28.3334C28.7487 28.6786 28.4689 28.9584 28.1237 28.9584H11.457C11.1119 28.9584 10.832 28.6786 10.832 28.3334C10.832 27.9882 11.1119 27.7084 11.457 27.7084H11.8737V17.0834C11.8737 15.913 11.8737 15.3278 12.1546 14.9075C12.2762 14.7255 12.4324 14.5692 12.6144 14.4476C12.9821 14.202 13.4759 14.1712 14.3771 14.1673C14.3736 14.4101 14.3737 14.6639 14.3737 14.9255L14.3737 15.0001V16.0417H13.5404C13.1952 16.0417 12.9154 16.3216 12.9154 16.6667C12.9154 17.0119 13.1952 17.2917 13.5404 17.2917H14.3737V18.5417H13.5404C13.1952 18.5417 12.9154 18.8216 12.9154 19.1667C12.9154 19.5119 13.1952 19.7917 13.5404 19.7917H14.3737V21.0417H13.5404C13.1952 21.0417 12.9154 21.3216 12.9154 21.6667C12.9154 22.0119 13.1952 22.2917 13.5404 22.2917H14.3737V27.7084H15.6237V15.0001C15.6237 13.4287 15.6237 12.6431 16.1119 12.1549C16.6 11.6667 17.3857 11.6667 18.957 11.6667H20.6237C22.195 11.6667 22.9807 11.6667 23.4689 12.1549C23.957 12.6431 23.957 13.4287 23.957 15.0001V27.7084H25.207V22.2917H26.0404C26.3855 22.2917 26.6654 22.0119 26.6654 21.6667C26.6654 21.3216 26.3855 21.0417 26.0404 21.0417H25.207V19.7917H26.0404C26.3855 19.7917 26.6654 19.5119 26.6654 19.1667C26.6654 18.8216 26.3855 18.5417 26.0404 18.5417H25.207V17.2917H26.0404C26.3855 17.2917 26.6654 17.0119 26.6654 16.6667C26.6654 16.3216 26.3855 16.0417 26.0404 16.0417H25.207V15.0001L25.207 14.9255C25.2071 14.6639 25.2071 14.4101 25.2037 14.1673C26.1048 14.1712 26.5986 14.202 26.9663 14.4476C27.1483 14.5692 27.3046 14.7255 27.4261 14.9075ZM20.4154 25.8334C20.4154 25.4882 20.1355 25.2084 19.7904 25.2084C19.4452 25.2084 19.1654 25.4882 19.1654 25.8334V27.7084H20.4154V25.8334ZM17.4987 22.5001C17.4987 22.1549 17.7785 21.8751 18.1237 21.8751H21.457C21.8022 21.8751 22.082 22.1549 22.082 22.5001C22.082 22.8453 21.8022 23.1251 21.457 23.1251H18.1237C17.7785 23.1251 17.4987 22.8453 17.4987 22.5001ZM18.1237 19.3751C17.7785 19.3751 17.4987 19.6549 17.4987 20.0001C17.4987 20.3453 17.7785 20.6251 18.1237 20.6251H21.457C21.8022 20.6251 22.082 20.3453 22.082 20.0001C22.082 19.6549 21.8022 19.3751 21.457 19.3751H18.1237ZM17.707 15.8334C17.707 14.5678 18.733 13.5417 19.9987 13.5417C21.2643 13.5417 22.2904 14.5678 22.2904 15.8334C22.2904 17.0991 21.2643 18.1251 19.9987 18.1251C18.733 18.1251 17.707 17.0991 17.707 15.8334ZM18.957 15.8334C18.957 15.2581 19.4234 14.7917 19.9987 14.7917C20.574 14.7917 21.0404 15.2581 21.0404 15.8334C21.0404 16.4087 20.574 16.8751 19.9987 16.8751C19.4234 16.8751 18.957 16.4087 18.957 15.8334Z" fill="url(#paint0_linear_9804_91476)"/>
<defs>
<linearGradient id="paint0_linear_9804_91476" x1="10.832" y1="20.3126" x2="28.7487" y2="20.3126" gradientUnits="userSpaceOnUse">
<stop stop-color="#4CAF87"/>
<stop offset="1" stop-color="#4A90E2"/>
</linearGradient>
</defs>
</svg>
