<svg width="19" height="18" viewBox="0 0 19 18" fill="none" xmlns="http://www.w3.org/2000/svg">
<path d="M9.5013 8.79175C9.84648 8.79175 10.1263 9.07157 10.1263 9.41675V10.0417H10.7513C11.0965 10.0417 11.3763 10.3216 11.3763 10.6667C11.3763 11.0119 11.0965 11.2917 10.7513 11.2917H10.1263V11.9167C10.1263 12.2619 9.84648 12.5417 9.5013 12.5417C9.15613 12.5417 8.8763 12.2619 8.8763 11.9167V11.2917H8.2513C7.90613 11.2917 7.6263 11.0119 7.6263 10.6667C7.6263 10.3216 7.90613 10.0417 8.2513 10.0417H8.8763V9.41675C8.8763 9.07157 9.15613 8.79175 9.5013 8.79175Z" fill="#17C964"/>
<path fill-rule="evenodd" clip-rule="evenodd" d="M9.5013 6.70842C7.31518 6.70842 5.54297 8.48062 5.54297 10.6667C5.54297 12.8529 7.31518 14.6251 9.5013 14.6251C11.6874 14.6251 13.4596 12.8529 13.4596 10.6667C13.4596 8.48062 11.6874 6.70842 9.5013 6.70842ZM6.79297 10.6667C6.79297 9.17098 8.00553 7.95842 9.5013 7.95842C10.9971 7.95842 12.2096 9.17098 12.2096 10.6667C12.2096 12.1625 10.9971 13.3751 9.5013 13.3751C8.00553 13.3751 6.79297 12.1625 6.79297 10.6667Z" fill="#17C964"/>
<path fill-rule="evenodd" clip-rule="evenodd" d="M9.45797 0.0417489C8.70924 0.0417252 8.08488 0.0417055 7.58924 0.108343C7.06607 0.178681 6.59374 0.333406 6.21418 0.712964C5.83463 1.09252 5.6799 1.56486 5.60956 2.08802C5.56031 2.45435 5.54747 2.89099 5.54413 3.39619C5.0037 3.41353 4.52193 3.44513 4.09378 3.5027C3.11677 3.63405 2.32597 3.91082 1.70234 4.53445C1.0787 5.15809 0.801938 5.94888 0.670582 6.9259C0.542946 7.87524 0.542956 9.08826 0.542969 10.6197V10.7138C0.542956 12.2452 0.542946 13.4583 0.670582 14.4076C0.801938 15.3846 1.0787 16.1754 1.70234 16.799C2.32597 17.4227 3.11677 17.6994 4.09378 17.8308C5.04312 17.9584 6.25614 17.9584 7.78759 17.9584H11.215C12.7464 17.9584 13.9595 17.9584 14.9088 17.8308C15.8858 17.6994 16.6766 17.4227 17.3003 16.799C17.9239 16.1754 18.2007 15.3846 18.332 14.4076C18.4597 13.4583 18.4596 12.2452 18.4596 10.7138V10.6197C18.4596 9.08829 18.4597 7.87524 18.332 6.9259C18.2007 5.94888 17.9239 5.15809 17.3003 4.53445C16.6766 3.91082 15.8858 3.63405 14.9088 3.5027C14.4807 3.44513 13.9989 3.41353 13.4585 3.39619C13.4551 2.89099 13.4423 2.45435 13.393 2.08802C13.3227 1.56486 13.168 1.09252 12.7884 0.712964C12.4089 0.333406 11.9365 0.178681 11.4134 0.108343C10.9177 0.0417055 10.2934 0.0417252 9.54466 0.0417489H9.45797ZM12.2081 3.37656C12.2046 2.9013 12.1929 2.54279 12.1542 2.25458C12.1025 1.87003 12.0131 1.70544 11.9045 1.59685C11.7959 1.48825 11.6314 1.3989 11.2468 1.3472C10.8443 1.29308 10.3046 1.29175 9.5013 1.29175C8.69796 1.29175 8.15833 1.29308 7.7558 1.3472C7.37124 1.3989 7.20666 1.48825 7.09807 1.59685C6.98947 1.70544 6.90012 1.87003 6.84842 2.25458C6.80967 2.54279 6.79798 2.9013 6.79447 3.37656C7.10958 3.37508 7.44042 3.37508 7.78762 3.37508H11.215C11.5622 3.37508 11.893 3.37508 12.2081 3.37656ZM2.58622 5.41834C2.9389 5.06566 3.42194 4.85427 4.26034 4.74155C5.11673 4.62641 6.24562 4.62508 7.83464 4.62508H11.168C12.757 4.62508 13.8859 4.62641 14.7423 4.74155C15.5807 4.85427 16.0637 5.06566 16.4164 5.41834C16.7691 5.77101 16.9804 6.25405 17.0932 7.09246C17.2083 7.94884 17.2096 9.07773 17.2096 10.6667C17.2096 12.2558 17.2083 13.3847 17.0932 14.241C16.9804 15.0795 16.7691 15.5625 16.4164 15.9152C16.0637 16.2678 15.5807 16.4792 14.7423 16.592C13.8859 16.7071 12.757 16.7084 11.168 16.7084H7.83464C6.24562 16.7084 5.11673 16.7071 4.26034 16.592C3.42194 16.4792 2.9389 16.2678 2.58622 15.9152C2.23355 15.5625 2.02216 15.0795 1.90944 14.241C1.7943 13.3847 1.79297 12.2558 1.79297 10.6667C1.79297 9.07773 1.7943 7.94884 1.90944 7.09246C2.02216 6.25405 2.23355 5.77101 2.58622 5.41834Z" fill="#17C964"/>
</svg>
