<svg width="19" height="16" viewBox="0 0 19 16" fill="none" xmlns="http://www.w3.org/2000/svg">
<path fill-rule="evenodd" clip-rule="evenodd" d="M8.62096 0.708252H10.3816C11.9131 0.708239 13.1261 0.708228 14.0755 0.835865C15.0525 0.967221 15.8433 1.24399 16.4669 1.86762C17.0906 2.49126 17.3673 3.28205 17.4987 4.25907C17.6248 5.19721 17.6263 6.39284 17.6263 7.89882C17.9129 8.13525 18.1404 8.44007 18.2852 8.7896C18.3854 9.03159 18.4243 9.2812 18.4423 9.54545C18.4596 9.79929 18.4596 10.1085 18.4596 10.4789V10.521C18.4596 10.8913 18.4596 11.2005 18.4423 11.4544C18.4243 11.7186 18.3854 11.9682 18.2852 12.2102C18.0526 12.7718 17.6065 13.2179 17.045 13.4505C16.803 13.5507 16.5534 13.5896 16.2891 13.6076C16.1882 13.6145 16.0785 13.6186 15.9596 13.6211V14.6666C15.9596 15.0118 15.6798 15.2916 15.3346 15.2916C14.9895 15.2916 14.7096 15.0118 14.7096 14.6666V13.6249H4.29297V14.6666C4.29297 15.0118 4.01315 15.2916 3.66797 15.2916C3.32279 15.2916 3.04297 15.0118 3.04297 14.6666V13.6211C2.92415 13.6186 2.81445 13.6145 2.7135 13.6076C2.44925 13.5896 2.19964 13.5507 1.95765 13.4505C1.39613 13.2179 0.950002 12.7718 0.717412 12.2102C0.617176 11.9682 0.578307 11.7186 0.560277 11.4544C0.542958 11.2005 0.542963 10.8913 0.542969 10.521V10.4789C0.542963 10.1085 0.542958 9.79929 0.560277 9.54545C0.578307 9.2812 0.617176 9.03159 0.717412 8.7896C0.862193 8.44007 1.08971 8.13525 1.3763 7.89881C1.37631 6.39284 1.37778 5.19721 1.50391 4.25907C1.63527 3.28205 1.91204 2.49126 2.53567 1.86762C3.15931 1.24399 3.9501 0.967221 4.92712 0.835865C5.87646 0.708228 7.08949 0.708239 8.62096 0.708252ZM2.62662 7.39901C2.65541 7.39646 2.68437 7.39421 2.7135 7.39223C2.9233 7.37791 3.17092 7.37543 3.45964 7.37501L3.45964 6.70658C3.45961 5.95785 3.45959 5.3335 3.52623 4.83785C3.59657 4.31469 3.75129 3.84236 4.13085 3.4628C4.51041 3.08324 4.98274 2.92852 5.5059 2.85818C6.00155 2.79154 6.6259 2.79156 7.37463 2.79158H11.628C12.3767 2.79156 13.0011 2.79154 13.4967 2.85818C14.0199 2.92852 14.4922 3.08324 14.8718 3.4628C15.2513 3.84236 15.406 4.31469 15.4764 4.83785C15.543 5.3335 15.543 5.95786 15.543 6.70659V7.37501C15.8317 7.37543 16.0793 7.37791 16.2891 7.39223C16.3182 7.39421 16.3472 7.39646 16.376 7.39901C16.374 6.11996 16.3599 5.16989 16.2598 4.42563C16.1471 3.58722 15.9357 3.10418 15.583 2.7515C15.2304 2.39883 14.7473 2.18744 13.9089 2.07472C13.0525 1.95958 11.9237 1.95825 10.3346 1.95825H8.66797C7.07895 1.95825 5.95006 1.95958 5.09368 2.07472C4.25527 2.18744 3.77223 2.39883 3.41955 2.7515C3.06688 3.10418 2.85549 3.58722 2.74277 4.42563C2.6427 5.16989 2.6286 6.11996 2.62662 7.39901ZM14.293 7.37492V6.74992C14.293 5.94658 14.2916 5.40694 14.2375 5.00441C14.1858 4.61986 14.0965 4.45528 13.9879 4.34668C13.8793 4.23809 13.7147 4.14873 13.3301 4.09703C12.9276 4.04291 12.388 4.04159 11.5846 4.04159H10.1263V7.37492H14.293ZM8.8763 7.37492V4.04159H7.41797C6.61463 4.04159 6.07499 4.04291 5.67246 4.09703C5.28791 4.14873 5.12333 4.23809 5.01473 4.34668C4.90614 4.45528 4.81678 4.61986 4.76508 5.00441C4.71096 5.40694 4.70964 5.94658 4.70964 6.74992V7.37492H8.8763ZM2.79859 8.63933C2.59798 8.65302 2.5003 8.67758 2.43601 8.70421C2.18077 8.80993 1.97798 9.01272 1.87226 9.26796C1.84563 9.33225 1.82107 9.42993 1.80738 9.63054C1.79331 9.83676 1.79297 10.1031 1.79297 10.4999C1.79297 10.8968 1.79331 11.1631 1.80738 11.3693C1.82107 11.5699 1.84563 11.6676 1.87226 11.7319C1.97798 11.9871 2.18077 12.1899 2.43601 12.2956C2.5003 12.3223 2.59798 12.3468 2.79859 12.3605C3.00481 12.3746 3.27113 12.3749 3.66797 12.3749H15.3346C15.7315 12.3749 15.9978 12.3746 16.204 12.3605C16.4046 12.3468 16.5023 12.3223 16.5666 12.2956C16.8218 12.1899 17.0246 11.9871 17.1303 11.7319C17.157 11.6676 17.1815 11.5699 17.1952 11.3693C17.2093 11.1631 17.2096 10.8968 17.2096 10.4999C17.2096 10.1031 17.2093 9.83676 17.1952 9.63054C17.1815 9.42993 17.157 9.33225 17.1303 9.26796C17.0246 9.01272 16.8218 8.80993 16.5666 8.70421C16.5023 8.67758 16.4046 8.65302 16.204 8.63933C15.9978 8.62526 15.7315 8.62492 15.3346 8.62492H3.66797C3.27113 8.62492 3.00481 8.62526 2.79859 8.63933Z" fill="#4A90E2"/>
</svg>
