<svg width="19" height="18" viewBox="0 0 19 18" fill="none" xmlns="http://www.w3.org/2000/svg">
<path d="M10.1263 0.666748C10.1263 0.32157 9.84648 0.041748 9.5013 0.041748C9.15613 0.041748 8.8763 0.32157 8.8763 0.666748V3.16675C8.8763 3.51193 9.15613 3.79175 9.5013 3.79175C9.84648 3.79175 10.1263 3.51193 10.1263 3.16675V0.666748Z" fill="#F31260"/>
<path d="M11.6446 8.00408C11.3246 7.87456 10.9603 8.02895 10.8307 8.34891C10.7012 8.66886 10.8556 9.03324 11.1756 9.16275C11.8543 9.43748 12.397 9.98027 12.6718 10.659C12.8013 10.9789 13.1657 11.1333 13.4856 11.0038C13.8056 10.8743 13.96 10.5099 13.8304 10.1899C13.4287 9.19746 12.6371 8.40582 11.6446 8.00408Z" fill="#F31260"/>
<path fill-rule="evenodd" clip-rule="evenodd" d="M9.5013 5.04175C5.47423 5.04175 2.20964 8.30634 2.20964 12.3334V16.7084H1.16797C0.822791 16.7084 0.542969 16.9882 0.542969 17.3334C0.542969 17.6786 0.822791 17.9584 1.16797 17.9584H17.8346C18.1798 17.9584 18.4596 17.6786 18.4596 17.3334C18.4596 16.9882 18.1798 16.7084 17.8346 16.7084H16.793V12.3334C16.793 8.30634 13.5284 5.04175 9.5013 5.04175ZM10.1263 16.7084H15.543V12.3334C15.543 8.99669 12.838 6.29175 9.5013 6.29175C6.16458 6.29175 3.45964 8.99669 3.45964 12.3334V16.7084H8.8763V15.3517C8.14806 15.0943 7.6263 14.3998 7.6263 13.5834C7.6263 12.5479 8.46577 11.7084 9.5013 11.7084C10.5368 11.7084 11.3763 12.5479 11.3763 13.5834C11.3763 14.3998 10.8545 15.0943 10.1263 15.3517V16.7084ZM9.5013 14.2084C9.84648 14.2084 10.1263 13.9286 10.1263 13.5834C10.1263 13.2382 9.84648 12.9584 9.5013 12.9584C9.15613 12.9584 8.8763 13.2382 8.8763 13.5834C8.8763 13.9286 9.15613 14.2084 9.5013 14.2084Z" fill="#F31260"/>
<path d="M17.4432 3.55814C17.6873 3.80222 17.6873 4.19795 17.4432 4.44202L16.1932 5.69202C15.9492 5.9361 15.5534 5.9361 15.3094 5.69202C15.0653 5.44795 15.0653 5.05222 15.3094 4.80814L16.5594 3.55814C16.8034 3.31406 17.1992 3.31406 17.4432 3.55814Z" fill="#F31260"/>
<path d="M2.44324 3.55814C2.19917 3.31406 1.80344 3.31406 1.55936 3.55814C1.31528 3.80222 1.31528 4.19795 1.55936 4.44202L2.80936 5.69202C3.05344 5.9361 3.44917 5.9361 3.69324 5.69202C3.93732 5.44795 3.93732 5.05222 3.69324 4.80814L2.44324 3.55814Z" fill="#F31260"/>
</svg>
