<svg width="15" height="18" viewBox="0 0 15 18" fill="none" xmlns="http://www.w3.org/2000/svg">
<path fill-rule="evenodd" clip-rule="evenodd" d="M2.4987 2.125C1.9234 2.125 1.45703 2.59137 1.45703 3.16667C1.45703 3.74196 1.9234 4.20833 2.4987 4.20833C3.07399 4.20833 3.54036 3.74196 3.54036 3.16667C3.54036 2.59137 3.07399 2.125 2.4987 2.125ZM0.207031 3.16667C0.207031 1.90101 1.23305 0.875 2.4987 0.875C3.54768 0.875 4.43205 1.57979 4.7041 2.54167H11.2487C13.2047 2.54167 14.7904 4.12733 14.7904 6.08333C14.7904 8.03934 13.2047 9.625 11.2487 9.625H3.7487C2.48305 9.625 1.45703 10.651 1.45703 11.9167C1.45703 13.1823 2.48305 14.2083 3.7487 14.2083H12.6565L12.0568 13.6086C11.8127 13.3645 11.8127 12.9688 12.0568 12.7247C12.3008 12.4806 12.6966 12.4806 12.9406 12.7247L14.6073 14.3914C14.8514 14.6355 14.8514 15.0312 14.6073 15.2753L12.9406 16.9419C12.6966 17.186 12.3008 17.186 12.0568 16.9419C11.8127 16.6979 11.8127 16.3021 12.0568 16.0581L12.6565 15.4583H3.7487C1.79269 15.4583 0.207031 13.8727 0.207031 11.9167C0.207031 9.96066 1.79269 8.375 3.7487 8.375H11.2487C12.5144 8.375 13.5404 7.34899 13.5404 6.08333C13.5404 4.81768 12.5144 3.79167 11.2487 3.79167H4.7041C4.43205 4.75354 3.54768 5.45833 2.4987 5.45833C1.23305 5.45833 0.207031 4.43232 0.207031 3.16667Z" fill="#F31260"/>
</svg>
