<svg width="18" height="18" viewBox="0 0 18 18" fill="none" xmlns="http://www.w3.org/2000/svg">
<path fill-rule="evenodd" clip-rule="evenodd" d="M10.88 0.137148C9.96663 -0.1178 9.11129 0.157805 8.50344 0.716329C7.90501 1.2662 7.54297 2.08797 7.54297 2.96723V8.54598C7.54297 9.60217 8.39918 10.4584 9.45537 10.4584H15.0341C15.9134 10.4584 16.7352 10.0963 17.285 9.49791C17.8435 8.89006 18.1192 8.03472 17.8642 7.1214C16.9208 3.74173 14.2596 1.08056 10.88 0.137148ZM8.79297 2.96723C8.79297 2.42447 9.01807 1.94102 9.34919 1.63677C9.6709 1.34117 10.0875 1.21373 10.5439 1.34112C13.5024 2.16696 15.8344 4.499 16.6602 7.45748C16.7876 7.91382 16.6602 8.33045 16.3646 8.65216C16.0603 8.98329 15.5769 9.20838 15.0341 9.20838H9.45537C9.08954 9.20838 8.79297 8.91182 8.79297 8.54598V2.96723Z" fill="#3B73B5"/>
<path d="M6.22824 2.92966C6.55755 2.82623 6.74067 2.47542 6.63724 2.1461C6.53381 1.81679 6.18299 1.63367 5.85368 1.7371C2.48656 2.79465 0.0429688 5.93999 0.0429688 9.65768C0.0429688 14.242 3.75932 17.9584 8.34367 17.9584C12.0614 17.9584 15.2067 15.5148 16.2642 12.1477C16.3677 11.8184 16.1846 11.4675 15.8552 11.3641C15.5259 11.2607 15.1751 11.4438 15.0717 11.7731C14.1731 14.6342 11.4998 16.7084 8.34367 16.7084C4.44967 16.7084 1.29297 13.5517 1.29297 9.65768C1.29297 6.50158 3.36713 3.82829 6.22824 2.92966Z" fill="#3B73B5"/>
</svg>
