<svg width="18" height="18" viewBox="0 0 18 18" fill="none" xmlns="http://www.w3.org/2000/svg">
<path fill-rule="evenodd" clip-rule="evenodd" d="M8.55936 11.8914C8.80344 11.6473 9.19917 11.6473 9.44324 11.8914L11.1099 13.5581C11.354 13.8021 11.354 14.1979 11.1099 14.4419C10.8658 14.686 10.4701 14.686 10.226 14.4419L9.6263 13.8422V17.3333C9.6263 17.6785 9.34648 17.9583 9.0013 17.9583C8.65613 17.9583 8.3763 17.6785 8.3763 17.3333V13.8422L7.77658 14.4419C7.5325 14.686 7.13677 14.686 6.89269 14.4419C6.64862 14.1979 6.64862 13.8021 6.89269 13.5581L8.55936 11.8914Z" fill="#3D8C6C"/>
<path d="M9.39813 2.125C7.10638 2.125 5.26122 3.95903 5.26122 6.20588C5.26122 6.59102 5.31514 6.96293 5.41571 7.31511C5.83004 7.43469 6.21789 7.61575 6.56835 7.84757C6.85624 8.03801 6.93523 8.42578 6.74479 8.71367C6.55435 9.00155 6.16659 9.08055 5.8787 8.89011C5.56136 8.68019 5.20061 8.52961 4.81238 8.45428C4.62753 8.41841 4.43601 8.39951 4.2394 8.39951C2.60514 8.39951 1.29297 9.70681 1.29297 11.3039C1.29297 12.901 2.60514 14.2083 4.2394 14.2083C4.58458 14.2083 4.8644 14.4882 4.8644 14.8333C4.8644 15.1785 4.58458 15.4583 4.2394 15.4583C1.92877 15.4583 0.0429688 13.6053 0.0429688 11.3039C0.0429688 9.05038 1.8512 7.22673 4.0959 7.1519C4.04024 6.84463 4.01122 6.52844 4.01122 6.20588C4.01122 3.25476 6.43002 0.875 9.39813 0.875C12.0299 0.875 14.2283 2.74475 14.6941 5.22606C16.6107 6.03959 17.9596 7.92441 17.9596 10.1275C17.9596 12.6891 16.1366 14.8203 13.7153 15.338C13.3778 15.4102 13.0456 15.1951 12.9735 14.8576C12.9013 14.52 13.1164 14.1879 13.4539 14.1157C15.3204 13.7165 16.7096 12.0775 16.7096 10.1275C16.7096 8.34685 15.5519 6.82572 13.9283 6.27053C13.5045 6.1256 13.0487 6.04657 12.5727 6.04657C12.0872 6.04657 11.6226 6.12882 11.1915 6.27938C10.8657 6.39321 10.5092 6.22131 10.3954 5.89544C10.2816 5.56957 10.4535 5.21312 10.7793 5.0993C11.3412 4.90304 11.9451 4.79657 12.5727 4.79657C12.819 4.79657 13.0615 4.81296 13.2994 4.84472C12.7322 3.26359 11.2031 2.125 9.39813 2.125Z" fill="#3D8C6C"/>
</svg>
